G04*
G04 #@! TF.GenerationSoftware,Altium Limited,Altium Designer,20.0.13 (296)*
G04*
G04 Layer_Physical_Order=6*
G04 Layer_Color=16711680*
%FSLAX44Y44*%
%MOMM*%
G71*
G01*
G75*
%ADD10C,0.2000*%
%ADD12C,0.2540*%
%ADD15R,0.9000X2.5000*%
%ADD18C,0.2500*%
%ADD25C,0.4000*%
%ADD26C,0.5000*%
%ADD28C,4.0000*%
%ADD29C,0.6000*%
%ADD35C,0.7000*%
%ADD36R,0.9000X1.3000*%
%ADD37R,0.9000X1.6000*%
%ADD38R,1.3000X0.7000*%
%ADD39R,0.7000X1.3000*%
%ADD40R,0.6000X0.2300*%
%ADD41R,0.2300X0.6000*%
%ADD42R,3.3000X3.3000*%
%ADD43C,0.9000*%
%ADD44C,0.3000*%
G36*
X373000Y311000D02*
X355000D01*
Y328000D01*
X373000D01*
Y311000D01*
D02*
G37*
G36*
X374000Y284000D02*
X356000D01*
Y301000D01*
X374000D01*
Y284000D01*
D02*
G37*
G36*
X183000Y251000D02*
X160000D01*
Y267892D01*
X183000D01*
Y251000D01*
D02*
G37*
G36*
X369000Y228000D02*
X346000D01*
X346000Y254444D01*
X351570D01*
X351695Y253174D01*
X351224Y253080D01*
X350143Y252358D01*
X349420Y251276D01*
X349166Y250000D01*
Y242000D01*
X349420Y240724D01*
X350143Y239642D01*
X351224Y238920D01*
X352500Y238666D01*
X353776Y238920D01*
X354857Y239642D01*
X355580Y240724D01*
X355834Y242000D01*
Y250000D01*
X355580Y251276D01*
X354857Y252358D01*
X353776Y253080D01*
X353305Y253174D01*
X353430Y254444D01*
X369000D01*
X369000Y228000D01*
D02*
G37*
G36*
X352000Y200000D02*
X334000D01*
Y217000D01*
X352000D01*
Y200000D01*
D02*
G37*
G36*
X364000Y173000D02*
X351148D01*
X351023Y174270D01*
X351776Y174420D01*
X352858Y175142D01*
X353580Y176224D01*
X353834Y177500D01*
Y184500D01*
X353580Y185776D01*
X352858Y186857D01*
X351776Y187580D01*
X350500Y187834D01*
X349224Y187580D01*
X348143Y186857D01*
X347420Y185776D01*
X347270Y185023D01*
X346000Y185148D01*
Y190000D01*
X364000D01*
Y173000D01*
D02*
G37*
%LPC*%
G36*
X339500Y214334D02*
X338224Y214080D01*
X337142Y213358D01*
X336420Y212276D01*
X336166Y211000D01*
Y210000D01*
Y209000D01*
X336420Y207724D01*
X337142Y206642D01*
X338224Y205920D01*
X339500Y205666D01*
X340776Y205920D01*
X341857Y206642D01*
X342580Y207724D01*
X342834Y209000D01*
Y210000D01*
Y211000D01*
X342580Y212276D01*
X341857Y213358D01*
X340776Y214080D01*
X339500Y214334D01*
D02*
G37*
%LPD*%
D10*
X295500Y413000D02*
X296000Y413500D01*
X236500Y257500D02*
X240000Y261000D01*
X218100Y242500D02*
X226000D01*
X215870Y244730D02*
X218100Y242500D01*
X211000Y251000D02*
X211765Y250235D01*
X216404D01*
X218989Y247650D01*
X225850D01*
X254235Y302235D02*
X255000Y303000D01*
X254235Y283985D02*
Y302235D01*
X257500Y281074D02*
X262874Y286449D01*
X257500Y274000D02*
Y281074D01*
X262874Y286449D02*
Y296874D01*
X252500Y282250D02*
X254235Y283985D01*
X270270Y288770D02*
X276000Y294500D01*
X270270Y285833D02*
Y288770D01*
X262620Y278183D02*
X270270Y285833D01*
X214989Y200096D02*
X237350Y222457D01*
X212390Y200096D02*
X214989D01*
X274000Y242500D02*
X292050D01*
X300285Y234265D01*
X274000Y237500D02*
X285564D01*
X274000Y232500D02*
X275850D01*
X276000Y232350D01*
Y230500D02*
Y232350D01*
X280735Y225765D02*
X282235D01*
X283000Y225000D01*
X257500Y216012D02*
X257756Y215756D01*
X257500Y216012D02*
Y226000D01*
X252500Y218278D02*
Y226000D01*
X252256Y218034D02*
X252500Y218278D01*
X252256Y208566D02*
Y218034D01*
X245000Y201310D02*
X252256Y208566D01*
X231500Y252500D02*
X236500Y257500D01*
X226000Y252500D02*
X231500D01*
X226000Y257500D02*
X236500D01*
X194500Y286000D02*
X205890D01*
X224150Y267740D01*
X252500Y274000D02*
Y282250D01*
X228000Y224000D02*
X232350D01*
X225647Y221647D02*
X228000Y224000D01*
X232350D02*
X232500Y224150D01*
Y226000D01*
X229175Y279744D02*
Y279825D01*
X232350Y274150D02*
X232500Y274000D01*
X232350Y274150D02*
Y276569D01*
X229175Y279744D02*
X232350Y276569D01*
X237350Y225850D02*
X237500Y226000D01*
X237350Y222457D02*
Y225850D01*
X195500Y227000D02*
X218650D01*
X224150Y232500D02*
X226000D01*
X218650Y227000D02*
X224150Y232500D01*
X225850Y247650D02*
X226000Y247500D01*
X213485Y271000D02*
X221985Y262500D01*
X211000Y271000D02*
X213485D01*
X221985Y262500D02*
X226000D01*
X176500Y200000D02*
X176500Y200000D01*
Y227000D01*
X237500Y274000D02*
Y292500D01*
X245000Y183500D02*
Y201310D01*
D12*
X381000Y307000D02*
Y341512D01*
X379512Y343000D02*
X381000Y341512D01*
X379000Y305000D02*
X381000Y307000D01*
X361730Y343000D02*
X379512D01*
X349770Y285145D02*
Y300770D01*
X354000Y305000D01*
X379000D01*
X359500Y344000D02*
X361115Y342385D01*
X368500Y335000D01*
X359500Y344000D02*
Y347000D01*
X368500Y335000D02*
X369000D01*
X331750Y222000D02*
X332000D01*
X331500D02*
X331750D01*
X303736Y234265D02*
X308000Y230000D01*
X300285Y234265D02*
X303736D01*
X308000Y213000D02*
X312000Y209000D01*
X308000Y213000D02*
Y230000D01*
X312000Y209000D02*
X320500D01*
Y211000D01*
X331500Y222000D01*
X277774Y262500D02*
X280274Y265000D01*
X274000Y262500D02*
X274000Y262500D01*
X277774D01*
X280274Y265000D02*
X287148D01*
X280110Y272000D02*
X301000D01*
X275610Y267500D02*
X280110Y272000D01*
X274000Y267500D02*
X275610D01*
X299500Y257500D02*
X301540Y259540D01*
X274000Y257500D02*
X299500D01*
X306500Y252500D02*
X316000Y262000D01*
X274000Y252500D02*
X306500D01*
X303500Y247500D02*
X309000Y242000D01*
X274000Y247500D02*
X303500D01*
X316000Y262000D02*
X326624D01*
X337250Y260250D02*
X338750Y261750D01*
X205770Y244730D02*
X215870D01*
X248310Y288022D02*
Y351690D01*
X237867Y301000D02*
X243770Y295097D01*
Y289903D02*
Y295097D01*
X242500Y288633D02*
X243770Y289903D01*
X236000Y364000D02*
X248310Y351690D01*
X247500Y287212D02*
X248310Y288022D01*
X263526Y217474D02*
X273000Y208000D01*
X263526Y217474D02*
Y218146D01*
X262500Y219172D02*
X263526Y218146D01*
X262500Y219172D02*
Y226000D01*
X311000Y147000D02*
Y156500D01*
X294000Y229064D02*
X295000Y228064D01*
X197730Y252770D02*
X197730D01*
X205770Y244730D01*
X194500Y256000D02*
Y258000D01*
Y256000D02*
X197730Y252770D01*
X326624Y262000D02*
X349770Y285145D01*
X186500Y312000D02*
X187500Y313000D01*
X180000Y312000D02*
X186500D01*
X180000Y312000D02*
Y312000D01*
X175500Y307500D02*
X180000Y312000D01*
X175500Y286000D02*
Y307500D01*
X224150Y267740D02*
X224390Y267500D01*
X224150Y267740D02*
Y267740D01*
X262620Y274120D02*
Y278183D01*
X262500Y274000D02*
X262620Y274120D01*
X196500Y364000D02*
X236000D01*
X276500Y335500D02*
Y337000D01*
X267500Y275610D02*
X273890Y282000D01*
X267500Y274000D02*
Y275610D01*
X225500Y339000D02*
X227500Y337000D01*
Y309500D02*
Y337000D01*
Y309500D02*
X236000Y301000D01*
X237867D01*
X187500Y313000D02*
X188500Y314000D01*
X339500Y210000D02*
Y211000D01*
Y209000D02*
Y210000D01*
X224390Y267500D02*
X226000D01*
X247500Y274000D02*
Y287212D01*
X242500Y274000D02*
Y288633D01*
X247500Y212500D02*
Y226000D01*
X234000Y199000D02*
X247500Y212500D01*
X269512Y192000D02*
X271000Y190512D01*
X220000Y196160D02*
X242500Y218660D01*
X220000Y183500D02*
Y196160D01*
X242500Y218660D02*
Y226000D01*
X196500Y339000D02*
X225500D01*
X270000Y177500D02*
X271000Y178500D01*
X220000Y183500D02*
X220000Y183500D01*
X341000Y321000D02*
X342000Y320000D01*
X295500Y388000D02*
X297500Y386000D01*
X337000Y137500D02*
X337000Y137500D01*
X350500Y177500D02*
Y181000D01*
Y184500D01*
X352500Y242000D02*
Y250000D01*
X306512Y171000D02*
X308000Y169512D01*
X310230Y156500D02*
X311000D01*
X308000Y158730D02*
X310230Y156500D01*
X175500Y286000D02*
X176000Y286500D01*
X276000Y294500D02*
X279000D01*
D15*
X321500Y242000D02*
D03*
X352500D02*
D03*
D18*
X211500Y237500D02*
X226000D01*
D25*
X297500Y360000D02*
X310000D01*
X295500Y362000D02*
X297500Y360000D01*
X337000Y156500D02*
X349580D01*
X342000Y293000D02*
X343000Y294000D01*
Y304000D01*
X314000Y272000D02*
X323000D01*
X301540Y259540D02*
X314000Y272000D01*
X323000D02*
X342000Y291000D01*
Y293000D01*
X195500Y173242D02*
Y200000D01*
X202394D02*
X223491Y221097D01*
X225097D01*
X195500Y200000D02*
X202394D01*
X276000Y230500D02*
X280735Y225765D01*
X217000Y292000D02*
X229175Y279825D01*
X276500Y388000D02*
Y413000D01*
Y388000D02*
X276500Y388000D01*
Y362000D02*
Y388000D01*
Y337000D02*
Y362000D01*
Y334000D02*
Y335500D01*
Y334000D02*
X298500Y312000D01*
X294000Y282000D02*
X298500Y286500D01*
Y312000D01*
X273890Y282000D02*
X294000D01*
X206500Y302500D02*
Y313000D01*
Y302500D02*
X217000Y292000D01*
X322270Y347000D02*
X340500D01*
X159000Y339000D02*
X177500D01*
X159000Y364000D02*
X177500D01*
D26*
X296000Y413500D02*
Y426000D01*
Y413500D02*
X296000Y413500D01*
X301000Y272000D02*
X312500Y283500D01*
X309000Y242000D02*
X321500D01*
X273000Y204512D02*
Y208000D01*
Y204512D02*
X306512Y171000D01*
X270000Y149351D02*
Y158500D01*
X310036Y181000D02*
X319500D01*
X304614Y186423D02*
X310036Y181000D01*
X295000Y209000D02*
X319500Y184500D01*
X295000Y209000D02*
Y228064D01*
X342000Y318000D02*
Y320000D01*
X331000Y307000D02*
X342000Y318000D01*
X322000Y307000D02*
X331000D01*
X312500Y297500D02*
X322000Y307000D01*
X312500Y283500D02*
Y297500D01*
X257756Y203756D02*
Y215756D01*
Y203756D02*
X269512Y192000D01*
X295000Y141488D02*
Y155000D01*
X273000Y177500D02*
X274000Y176500D01*
Y176000D02*
X295000Y155000D01*
X271000Y177500D02*
X273000D01*
X274000Y176000D02*
Y176500D01*
X261000Y317000D02*
X264500Y313500D01*
X279000D01*
X271000Y178500D02*
Y190512D01*
X85000Y232000D02*
X103500D01*
X295000Y141488D02*
X298988Y137500D01*
X220000Y146000D02*
Y164500D01*
X295500Y337000D02*
X302000D01*
X318000Y321000D01*
X341000D01*
X84000Y205000D02*
X102500D01*
X85000Y263000D02*
X103500D01*
X245000Y146000D02*
Y164500D01*
X311000Y137500D02*
X337000D01*
X298988D02*
X311000D01*
X308000Y158730D02*
Y169512D01*
D28*
X464000Y171000D02*
D03*
X30000Y300000D02*
D03*
Y220000D02*
D03*
X464000Y113000D02*
D03*
Y390000D02*
D03*
Y337000D02*
D03*
D29*
X430000Y170000D02*
D03*
X428000Y322000D02*
D03*
X310000Y360000D02*
D03*
X69000Y139000D02*
D03*
X73000Y116000D02*
D03*
X44000Y123000D02*
D03*
X57000D02*
D03*
X44000Y106000D02*
D03*
X57000D02*
D03*
X51000Y114000D02*
D03*
X44000Y87000D02*
D03*
X58000D02*
D03*
X50000Y96000D02*
D03*
X44000Y72000D02*
D03*
Y58000D02*
D03*
X51000Y64000D02*
D03*
X50000Y79000D02*
D03*
X58000Y72000D02*
D03*
Y58000D02*
D03*
X72000Y343000D02*
D03*
Y357000D02*
D03*
X64000Y364000D02*
D03*
X65000Y349000D02*
D03*
X58000Y343000D02*
D03*
Y357000D02*
D03*
X64000Y381000D02*
D03*
X72000Y372000D02*
D03*
X58000D02*
D03*
X65000Y399000D02*
D03*
X71000Y391000D02*
D03*
X58000D02*
D03*
X71000Y408000D02*
D03*
X58000D02*
D03*
X84875Y408816D02*
D03*
X84884Y399000D02*
D03*
X164000Y258000D02*
D03*
Y265000D02*
D03*
X349580Y156500D02*
D03*
X361000Y177000D02*
D03*
X360617Y185000D02*
D03*
X348000Y206000D02*
D03*
Y213000D02*
D03*
X365000Y235000D02*
D03*
X370000Y289000D02*
D03*
Y297000D02*
D03*
X368000Y324000D02*
D03*
Y316000D02*
D03*
X296000Y426000D02*
D03*
X391000Y185000D02*
D03*
X392000Y171000D02*
D03*
X391000Y155000D02*
D03*
X430000D02*
D03*
Y186000D02*
D03*
X428000Y352000D02*
D03*
Y336000D02*
D03*
X391000Y321587D02*
D03*
Y336195D02*
D03*
Y352000D02*
D03*
X369000Y335000D02*
D03*
X82000Y163000D02*
D03*
Y181000D02*
D03*
X175000Y448000D02*
D03*
Y469000D02*
D03*
X85000Y232000D02*
D03*
X343000Y304000D02*
D03*
X331750Y222000D02*
D03*
X287148Y265000D02*
D03*
X82000Y172000D02*
D03*
X255000Y303000D02*
D03*
X312000Y147000D02*
D03*
X262874Y296874D02*
D03*
X270000Y149351D02*
D03*
X304614Y186423D02*
D03*
X195500Y173242D02*
D03*
X212390Y200096D02*
D03*
X73000Y124000D02*
D03*
X68078Y101203D02*
D03*
X83730Y424050D02*
D03*
X227500Y337000D02*
D03*
X217000Y292000D02*
D03*
X256000Y392000D02*
D03*
X260000Y240000D02*
D03*
Y261000D02*
D03*
X240000Y240000D02*
D03*
Y261000D02*
D03*
X261000Y317000D02*
D03*
X211000Y251000D02*
D03*
X175000Y458000D02*
D03*
X336000Y109000D02*
D03*
X171245Y398650D02*
D03*
X211000Y271000D02*
D03*
X211500Y237500D02*
D03*
X153000Y124000D02*
D03*
X83230Y385950D02*
D03*
X237500Y292500D02*
D03*
X234000Y199000D02*
D03*
X283000Y225000D02*
D03*
X220000Y146000D02*
D03*
X322270Y347000D02*
D03*
X365000Y251000D02*
D03*
X84000Y205000D02*
D03*
X85000Y263000D02*
D03*
X245000Y146000D02*
D03*
X159000Y339000D02*
D03*
Y364000D02*
D03*
D35*
X187899Y273500D02*
X193500Y267899D01*
X130000Y273500D02*
X187899D01*
X122500Y266000D02*
X130000Y273500D01*
X122500Y232000D02*
Y263000D01*
Y208000D02*
Y232000D01*
X122500Y208000D02*
X122500Y208000D01*
X122500Y205000D02*
Y208000D01*
X193500Y259000D02*
Y267899D01*
X122500Y263000D02*
Y266000D01*
D36*
X193500Y258000D02*
D03*
X176000D02*
D03*
X320500Y209000D02*
D03*
X339500D02*
D03*
X342000Y293000D02*
D03*
X361000D02*
D03*
Y320000D02*
D03*
X342000D02*
D03*
X186903Y313000D02*
D03*
X205903D02*
D03*
X195500Y200000D02*
D03*
X176500D02*
D03*
X176500Y227000D02*
D03*
X195500D02*
D03*
X192664Y286016D02*
D03*
X173664D02*
D03*
D37*
X319500Y181000D02*
D03*
X350500D02*
D03*
D38*
X311000Y156500D02*
D03*
Y137500D02*
D03*
X337000Y137500D02*
D03*
Y156500D02*
D03*
X220000Y183500D02*
D03*
Y164500D02*
D03*
X270000Y158500D02*
D03*
Y177500D02*
D03*
X279000Y313500D02*
D03*
Y294500D02*
D03*
X245000Y164500D02*
D03*
Y183500D02*
D03*
D39*
X103500Y205000D02*
D03*
X122500D02*
D03*
X122500Y232000D02*
D03*
X103500D02*
D03*
X103500Y263000D02*
D03*
X122500D02*
D03*
X359500Y347000D02*
D03*
X340500D02*
D03*
X177500Y364000D02*
D03*
X196500D02*
D03*
X177500Y339000D02*
D03*
X196500D02*
D03*
X295500Y362000D02*
D03*
X276500D02*
D03*
X295500Y388000D02*
D03*
X276500D02*
D03*
X276500Y413000D02*
D03*
X295500D02*
D03*
X295500Y337000D02*
D03*
X276500D02*
D03*
D40*
X274000Y267500D02*
D03*
Y262500D02*
D03*
Y257500D02*
D03*
Y252500D02*
D03*
Y247500D02*
D03*
Y242500D02*
D03*
Y237500D02*
D03*
Y232500D02*
D03*
X226000D02*
D03*
Y237500D02*
D03*
Y242500D02*
D03*
Y247500D02*
D03*
Y252500D02*
D03*
Y257500D02*
D03*
Y262500D02*
D03*
Y267500D02*
D03*
D41*
X267500Y226000D02*
D03*
X262500D02*
D03*
X257500D02*
D03*
X252500D02*
D03*
X247500D02*
D03*
X242500D02*
D03*
X237500D02*
D03*
X232500D02*
D03*
Y274000D02*
D03*
X237500D02*
D03*
X242500D02*
D03*
X247500D02*
D03*
X252500D02*
D03*
X257500D02*
D03*
X262500D02*
D03*
X267500D02*
D03*
D42*
X250000Y250000D02*
D03*
D43*
X321500Y244500D02*
Y250000D01*
X327000D02*
X337250Y260250D01*
X321500Y250000D02*
X327000D01*
X379000Y261000D02*
X401000Y283000D01*
X338000Y261000D02*
X379000D01*
X401000Y283000D02*
Y361000D01*
X297500Y386000D02*
X376000D01*
X401000Y361000D01*
D44*
X285564Y237500D02*
X294000Y229064D01*
M02*
