G04*
G04 #@! TF.GenerationSoftware,Altium Limited,Altium Designer,20.0.13 (296)*
G04*
G04 Layer_Color=8388736*
%FSLAX44Y44*%
%MOMM*%
G71*
G01*
G75*
%ADD18C,0.2500*%
%ADD19R,2.7532X3.9532*%
%ADD20R,4.0532X5.2032*%
%ADD21R,1.1032X2.7032*%
%ADD22R,1.3972X0.7622*%
%ADD23R,3.6422X3.4572*%
%ADD24C,4.2032*%
D18*
X39497Y34494D02*
X29500D01*
Y26996D01*
X34498D01*
X29500D01*
Y19498D01*
X54492Y34494D02*
X44495D01*
Y19498D01*
X54492D01*
X44495Y26996D02*
X49493D01*
X59490Y34494D02*
Y19498D01*
X66988D01*
X69487Y21997D01*
Y31994D01*
X66988Y34494D01*
X59490D01*
X84482D02*
X74485D01*
Y19498D01*
X84482D01*
X74485Y26996D02*
X79484D01*
X89480Y34494D02*
Y24497D01*
X94479Y19498D01*
X99477Y24497D01*
Y34494D01*
X114472D02*
X104476D01*
Y19498D01*
X114472D01*
X104476Y26996D02*
X109474D01*
X119471Y34494D02*
Y19498D01*
X129468D01*
X149461D02*
Y29495D01*
X154459Y34494D01*
X159458Y29495D01*
Y19498D01*
Y26996D01*
X149461D01*
X174453Y29495D02*
X166955D01*
X164456Y26996D01*
Y21997D01*
X166955Y19498D01*
X174453D01*
X181951Y29495D02*
X186949D01*
X189448Y26996D01*
Y19498D01*
X181951D01*
X179451Y21997D01*
X181951Y24497D01*
X189448D01*
X204443Y34494D02*
Y19498D01*
X196946D01*
X194447Y21997D01*
Y26996D01*
X196946Y29495D01*
X204443D01*
X216939Y19498D02*
X211941D01*
X209442Y21997D01*
Y26996D01*
X211941Y29495D01*
X216939D01*
X219438Y26996D01*
Y24497D01*
X209442D01*
X224437Y19498D02*
Y29495D01*
X226936D01*
X229435Y26996D01*
Y19498D01*
Y26996D01*
X231934Y29495D01*
X234434Y26996D01*
Y19498D01*
X239432Y29495D02*
Y21997D01*
X241931Y19498D01*
X249429D01*
Y16999D01*
X246930Y14500D01*
X244430D01*
X249429Y19498D02*
Y29495D01*
X269422Y34494D02*
Y19498D01*
X291915D02*
Y29495D01*
X296913Y34494D01*
X301912Y29495D01*
Y19498D01*
Y26996D01*
X291915D01*
X306910Y19498D02*
Y34494D01*
X314408D01*
X316907Y31994D01*
Y26996D01*
X314408Y24497D01*
X306910D01*
X321905Y19498D02*
Y34494D01*
X329403D01*
X331902Y31994D01*
Y26996D01*
X329403Y24497D01*
X321905D01*
X326904D02*
X331902Y19498D01*
D19*
X410000Y169000D02*
D03*
Y115000D02*
D03*
Y336000D02*
D03*
Y390000D02*
D03*
D20*
X283750Y109000D02*
D03*
X182250D02*
D03*
D21*
X163500Y458000D02*
D03*
X132500D02*
D03*
X95500Y172000D02*
D03*
X126500D02*
D03*
D22*
X138270Y100950D02*
D03*
Y113650D02*
D03*
Y126350D02*
D03*
Y139050D02*
D03*
X87730Y100950D02*
D03*
Y113650D02*
D03*
Y126350D02*
D03*
Y139050D02*
D03*
X152270Y385950D02*
D03*
Y398650D02*
D03*
Y411350D02*
D03*
Y424050D02*
D03*
X101730Y385950D02*
D03*
Y398650D02*
D03*
Y411350D02*
D03*
Y424050D02*
D03*
D23*
X196870Y392000D02*
D03*
X283130D02*
D03*
D24*
X464000Y171000D02*
D03*
X30000Y300000D02*
D03*
Y220000D02*
D03*
X464000Y113000D02*
D03*
Y390000D02*
D03*
Y337000D02*
D03*
M02*
