G04*
G04 #@! TF.GenerationSoftware,Altium Limited,Altium Designer,20.0.13 (296)*
G04*
G04 Layer_Color=65535*
%FSLAX44Y44*%
%MOMM*%
G71*
G01*
G75*
%ADD10C,0.2000*%
%ADD11C,0.1500*%
%ADD12C,0.2540*%
D10*
X109825Y145000D02*
G03*
X116175Y145000I3175J0D01*
G01*
X123825Y430000D02*
G03*
X130175Y430000I3175J0D01*
G01*
X382000Y91000D02*
X438000D01*
X382000D02*
Y193000D01*
X438000D01*
Y91000D02*
Y193000D01*
X168500Y45000D02*
Y79000D01*
Y139766D02*
Y173000D01*
X297500Y139766D02*
Y173000D01*
Y45000D02*
Y79000D01*
X168500Y45000D02*
X297500D01*
X168500Y173000D02*
X297500D01*
X123000Y475000D02*
X173000D01*
X123000Y441000D02*
Y475000D01*
Y441000D02*
X173000D01*
Y475000D01*
X86000Y155000D02*
X136000D01*
Y189000D01*
X86000D02*
X136000D01*
X86000Y155000D02*
Y189000D01*
X93000Y95000D02*
X133000D01*
X116175Y145000D02*
X133000D01*
X93000D02*
X109825D01*
X107000Y380000D02*
X147000D01*
X130175Y430000D02*
X147000D01*
X107000D02*
X123825D01*
X382000Y414000D02*
X438000D01*
Y312000D02*
Y414000D01*
X382000Y312000D02*
X438000D01*
X382000D02*
Y414000D01*
X299000Y412000D02*
Y447000D01*
X298500Y337000D02*
Y372000D01*
X181500Y447000D02*
X298500D01*
X181000Y412000D02*
Y447000D01*
X181500Y337000D02*
Y372000D01*
Y337000D02*
X298500D01*
X456998Y426996D02*
X452999D01*
X451000Y424997D01*
Y416999D01*
X452999Y415000D01*
X456998D01*
X458997Y416999D01*
Y424997D01*
X456998Y426996D01*
X462996D02*
Y416999D01*
X464995Y415000D01*
X468994D01*
X470993Y416999D01*
Y426996D01*
X474992D02*
X482990D01*
X478991D01*
Y415000D01*
X494986D02*
X486988D01*
X494986Y422997D01*
Y424997D01*
X492986Y426996D01*
X488988D01*
X486988Y424997D01*
X454998Y207996D02*
X450999D01*
X449000Y205997D01*
Y197999D01*
X450999Y196000D01*
X454998D01*
X456997Y197999D01*
Y205997D01*
X454998Y207996D01*
X460996D02*
Y197999D01*
X462995Y196000D01*
X466994D01*
X468993Y197999D01*
Y207996D01*
X472992D02*
X480990D01*
X476991D01*
Y196000D01*
X484988D02*
X488987D01*
X486988D01*
Y207996D01*
X484988Y205997D01*
X454997Y308997D02*
X452998Y310996D01*
X448999D01*
X447000Y308997D01*
Y300999D01*
X448999Y299000D01*
X452998D01*
X454997Y300999D01*
Y304998D01*
X450999D01*
X458996Y299000D02*
Y310996D01*
X466993Y299000D01*
Y310996D01*
X470992D02*
Y299000D01*
X476990D01*
X478990Y300999D01*
Y308997D01*
X476990Y310996D01*
X470992D01*
X463997Y88997D02*
X461998Y90996D01*
X457999D01*
X456000Y88997D01*
Y80999D01*
X457999Y79000D01*
X461998D01*
X463997Y80999D01*
Y84998D01*
X459999D01*
X467996Y79000D02*
Y90996D01*
X475993Y79000D01*
Y90996D01*
X479992D02*
Y79000D01*
X485990D01*
X487990Y80999D01*
Y88997D01*
X485990Y90996D01*
X479992D01*
X23997Y191997D02*
X21998Y193996D01*
X17999D01*
X16000Y191997D01*
Y183999D01*
X17999Y182000D01*
X21998D01*
X23997Y183999D01*
Y187998D01*
X19999D01*
X27996Y182000D02*
Y193996D01*
X35993Y182000D01*
Y193996D01*
X39992D02*
Y182000D01*
X45990D01*
X47990Y183999D01*
Y191997D01*
X45990Y193996D01*
X39992D01*
X5000Y333998D02*
X12997D01*
X8999Y337997D02*
Y329999D01*
X16996Y339996D02*
Y331999D01*
X20995Y328000D01*
X24994Y331999D01*
Y339996D01*
X28992D02*
X32991D01*
X30992D01*
Y328000D01*
X28992D01*
X32991D01*
X38989D02*
Y339996D01*
X46986Y328000D01*
Y339996D01*
D11*
X67500Y144500D02*
X69499D01*
X68500D01*
Y150498D01*
X67500Y149498D01*
X81500Y430500D02*
X83499D01*
X82500D01*
Y436498D01*
X81500Y435498D01*
X490834Y339499D02*
X488501D01*
X489667D01*
Y333667D01*
X488501Y332501D01*
X487335D01*
X486169Y333667D01*
X497831Y339499D02*
X495499Y338333D01*
X493166Y336000D01*
Y333667D01*
X494333Y332501D01*
X496665D01*
X497831Y333667D01*
Y334834D01*
X496665Y336000D01*
X493166D01*
X490834Y176499D02*
X488501D01*
X489667D01*
Y170667D01*
X488501Y169501D01*
X487335D01*
X486169Y170667D01*
X497831Y176499D02*
X493166D01*
Y173000D01*
X495499Y174166D01*
X496665D01*
X497831Y173000D01*
Y170667D01*
X496665Y169501D01*
X494333D01*
X493166Y170667D01*
X490834Y395499D02*
X488501D01*
X489667D01*
Y389667D01*
X488501Y388501D01*
X487335D01*
X486169Y389667D01*
X496665Y388501D02*
Y395499D01*
X493166Y392000D01*
X497831D01*
X490834Y118499D02*
X488501D01*
X489667D01*
Y112667D01*
X488501Y111501D01*
X487335D01*
X486169Y112667D01*
X493166Y117333D02*
X494333Y118499D01*
X496665D01*
X497831Y117333D01*
Y116166D01*
X496665Y115000D01*
X495499D01*
X496665D01*
X497831Y113834D01*
Y112667D01*
X496665Y111501D01*
X494333D01*
X493166Y112667D01*
X7834Y247499D02*
X5501D01*
X6667D01*
Y241667D01*
X5501Y240501D01*
X4335D01*
X3169Y241667D01*
X14832Y240501D02*
X10166D01*
X14832Y245166D01*
Y246333D01*
X13665Y247499D01*
X11333D01*
X10166Y246333D01*
X7000Y285499D02*
X4667D01*
X5834D01*
Y279667D01*
X4667Y278501D01*
X3501D01*
X2335Y279667D01*
X9333Y278501D02*
X11665D01*
X10499D01*
Y285499D01*
X9333Y284333D01*
D12*
X393779Y214200D02*
X391240Y216739D01*
X386161D01*
X383622Y214200D01*
Y204043D01*
X386161Y201504D01*
X391240D01*
X393779Y204043D01*
X398857D02*
X401396Y201504D01*
X406475D01*
X409014Y204043D01*
Y214200D01*
X406475Y216739D01*
X401396D01*
X398857Y214200D01*
Y211661D01*
X401396Y209121D01*
X409014D01*
X393779Y435434D02*
X391240Y437973D01*
X386161D01*
X383622Y435434D01*
Y425277D01*
X386161Y422738D01*
X391240D01*
X393779Y425277D01*
X398857Y422738D02*
X403935D01*
X401396D01*
Y437973D01*
X398857Y435434D01*
X411553D02*
X414092Y437973D01*
X419170D01*
X421710Y435434D01*
Y425277D01*
X419170Y422738D01*
X414092D01*
X411553Y425277D01*
Y435434D01*
X124461Y359922D02*
Y370078D01*
X121922Y372617D01*
X116843D01*
X114304Y370078D01*
Y359922D01*
X116843Y357383D01*
X121922D01*
X119382Y362461D02*
X124461Y357383D01*
X121922D02*
X124461Y359922D01*
X139696Y357383D02*
X129539D01*
X139696Y367539D01*
Y370078D01*
X137157Y372617D01*
X132078D01*
X129539Y370078D01*
X104000Y74922D02*
Y85078D01*
X101461Y87618D01*
X96383D01*
X93843Y85078D01*
Y74922D01*
X96383Y72382D01*
X101461D01*
X98922Y77461D02*
X104000Y72382D01*
X101461D02*
X104000Y74922D01*
X109078Y72382D02*
X114157D01*
X111618D01*
Y87618D01*
X109078Y85078D01*
X181184Y470739D02*
Y455504D01*
X191341D01*
X206576D02*
X196419D01*
X206576Y465661D01*
Y468200D01*
X204037Y470739D01*
X198958D01*
X196419Y468200D01*
X168843Y196618D02*
Y181383D01*
X179000D01*
X184078D02*
X189157D01*
X186618D01*
Y196618D01*
X184078Y194078D01*
X133461Y495078D02*
X130922Y497617D01*
X125843D01*
X123304Y495078D01*
Y484922D01*
X125843Y482383D01*
X130922D01*
X133461Y484922D01*
X148696Y497617D02*
X143617Y495078D01*
X138539Y490000D01*
Y484922D01*
X141078Y482383D01*
X146157D01*
X148696Y484922D01*
Y487461D01*
X146157Y490000D01*
X138539D01*
X101461Y209078D02*
X98922Y211618D01*
X93843D01*
X91304Y209078D01*
Y198922D01*
X93843Y196383D01*
X98922D01*
X101461Y198922D01*
X114157Y196383D02*
Y211618D01*
X106539Y204000D01*
X116696D01*
M02*
