G04*
G04 #@! TF.GenerationSoftware,Altium Limited,Altium Designer,20.0.13 (296)*
G04*
G04 Layer_Color=255*
%FSLAX44Y44*%
%MOMM*%
G71*
G01*
G75*
%ADD15R,0.9000X2.5000*%
%ADD28C,4.0000*%
%ADD36R,0.9000X1.3000*%
%ADD37R,0.9000X1.6000*%
%ADD38R,1.3000X0.7000*%
%ADD39R,0.7000X1.3000*%
%ADD40R,0.6000X0.2300*%
%ADD41R,0.2300X0.6000*%
%ADD42R,3.3000X3.3000*%
D15*
X321500Y242000D02*
D03*
X352500D02*
D03*
D28*
X464000Y171000D02*
D03*
X30000Y300000D02*
D03*
Y220000D02*
D03*
X464000Y113000D02*
D03*
Y390000D02*
D03*
Y337000D02*
D03*
D36*
X193500Y258000D02*
D03*
X176000D02*
D03*
X320500Y209000D02*
D03*
X339500D02*
D03*
X342000Y293000D02*
D03*
X361000D02*
D03*
Y320000D02*
D03*
X342000D02*
D03*
X186903Y313000D02*
D03*
X205903D02*
D03*
X195500Y200000D02*
D03*
X176500D02*
D03*
X176500Y227000D02*
D03*
X195500D02*
D03*
X192664Y286016D02*
D03*
X173664D02*
D03*
D37*
X319500Y181000D02*
D03*
X350500D02*
D03*
D38*
X311000Y156500D02*
D03*
Y137500D02*
D03*
X337000Y137500D02*
D03*
Y156500D02*
D03*
X220000Y183500D02*
D03*
Y164500D02*
D03*
X270000Y158500D02*
D03*
Y177500D02*
D03*
X279000Y313500D02*
D03*
Y294500D02*
D03*
X245000Y164500D02*
D03*
Y183500D02*
D03*
D39*
X103500Y205000D02*
D03*
X122500D02*
D03*
X122500Y232000D02*
D03*
X103500D02*
D03*
X103500Y263000D02*
D03*
X122500D02*
D03*
X359500Y347000D02*
D03*
X340500D02*
D03*
X177500Y364000D02*
D03*
X196500D02*
D03*
X177500Y339000D02*
D03*
X196500D02*
D03*
X295500Y362000D02*
D03*
X276500D02*
D03*
X295500Y388000D02*
D03*
X276500D02*
D03*
X276500Y413000D02*
D03*
X295500D02*
D03*
X295500Y337000D02*
D03*
X276500D02*
D03*
D40*
X274000Y267500D02*
D03*
Y262500D02*
D03*
Y257500D02*
D03*
Y252500D02*
D03*
Y247500D02*
D03*
Y242500D02*
D03*
Y237500D02*
D03*
Y232500D02*
D03*
X226000D02*
D03*
Y237500D02*
D03*
Y242500D02*
D03*
Y247500D02*
D03*
Y252500D02*
D03*
Y257500D02*
D03*
Y262500D02*
D03*
Y267500D02*
D03*
D41*
X267500Y226000D02*
D03*
X262500D02*
D03*
X257500D02*
D03*
X252500D02*
D03*
X247500D02*
D03*
X242500D02*
D03*
X237500D02*
D03*
X232500D02*
D03*
Y274000D02*
D03*
X237500D02*
D03*
X242500D02*
D03*
X247500D02*
D03*
X252500D02*
D03*
X257500D02*
D03*
X262500D02*
D03*
X267500D02*
D03*
D42*
X250000Y250000D02*
D03*
M02*
