G04*
G04 #@! TF.GenerationSoftware,Altium Limited,Altium Designer,20.0.13 (296)*
G04*
G04 Layer_Physical_Order=3*
G04 Layer_Color=36540*
%FSLAX44Y44*%
%MOMM*%
G71*
G01*
G75*
%ADD10C,0.2000*%
%ADD12C,0.2540*%
%ADD29C,0.6000*%
%ADD34C,1.0000*%
%ADD35C,0.7000*%
D10*
X320066Y200446D02*
X320485Y200027D01*
X302500Y252500D02*
X320066Y234934D01*
Y200446D02*
Y234934D01*
X227500Y283143D02*
X236855Y273788D01*
X227500Y283143D02*
Y337000D01*
X280150Y252500D02*
X302500D01*
X258863Y273788D02*
X280150Y252500D01*
X236855Y273788D02*
X258863D01*
D12*
X320485Y173488D02*
Y200027D01*
X289000Y172000D02*
X318997D01*
X320485Y173488D01*
X304598Y186423D02*
X304614D01*
X262000Y199000D02*
X289000Y172000D01*
X234000Y199000D02*
X262000D01*
D29*
X69000Y139000D02*
D03*
X312000Y147000D02*
D03*
X262874Y296874D02*
D03*
X304614Y186423D02*
D03*
X195500Y173242D02*
D03*
X212390Y200096D02*
D03*
X68078Y101203D02*
D03*
X83730Y424050D02*
D03*
X227500Y337000D02*
D03*
X217000Y292000D02*
D03*
X256000Y392000D02*
D03*
X336000Y109000D02*
D03*
X171245Y398650D02*
D03*
X211000Y271000D02*
D03*
X211500Y237500D02*
D03*
X153000Y124000D02*
D03*
X83230Y385950D02*
D03*
X237500Y292500D02*
D03*
X234000Y199000D02*
D03*
X84000Y205000D02*
D03*
D34*
X203945Y292000D02*
X217000D01*
X171245Y324700D02*
Y398650D01*
Y324700D02*
X203945Y292000D01*
X35858Y150000D02*
X35858D01*
X62000Y176142D02*
Y223000D01*
X35858Y150000D02*
X62000Y176142D01*
X30000Y144142D02*
X35858Y150000D01*
X36858Y47000D02*
X63142D01*
X68078Y101203D02*
X69000Y100281D01*
Y52858D02*
Y100281D01*
X63142Y47000D02*
X69000Y52858D01*
X30000Y53858D02*
Y144142D01*
Y53858D02*
X36858Y47000D01*
X69000Y139000D02*
X121000D01*
X181000Y199000D01*
X62000Y223000D02*
X75000Y236000D01*
Y236142D01*
X80858Y242000D01*
X312000Y147000D02*
X336000Y123000D01*
Y109000D02*
Y123000D01*
X195500Y147500D02*
Y173242D01*
X211294Y199000D02*
X212390Y200096D01*
X181000Y199000D02*
X211294D01*
X81000Y242000D02*
X86000Y247000D01*
X188000D02*
X197500Y237500D01*
X86000Y247000D02*
X188000D01*
X80858Y242000D02*
X81000D01*
X197500Y237500D02*
X211500D01*
X83730Y424050D02*
X215950D01*
X239000Y401000D01*
X237500Y292500D02*
Y315321D01*
X239000Y316821D01*
Y401000D01*
X83230Y385950D02*
X198180Y271000D01*
X211000D01*
X153000Y124000D02*
X172000D01*
X195500Y147500D01*
D35*
X256000Y373000D02*
Y392000D01*
Y373000D02*
X270000Y359000D01*
Y304000D02*
Y359000D01*
X262874Y296874D02*
X270000Y304000D01*
X293515Y197521D02*
X304614Y186423D01*
X293500Y197521D02*
X293515D01*
X101717Y222717D02*
X268304D01*
X293500Y197521D01*
X84000Y205000D02*
X101717Y222717D01*
M02*
