G04*
G04 #@! TF.GenerationSoftware,Altium Limited,Altium Designer,20.0.13 (296)*
G04*
G04 Layer_Physical_Order=1*
G04 Layer_Color=255*
%FSLAX44Y44*%
%MOMM*%
G71*
G01*
G75*
%ADD10C,0.2000*%
%ADD13R,2.5500X3.7500*%
%ADD14R,3.8500X5.0000*%
%ADD15R,0.9000X2.5000*%
%ADD16R,1.1940X0.5590*%
%ADD17R,3.4390X3.2540*%
%ADD25C,0.4000*%
%ADD26C,0.5000*%
%ADD27C,0.2600*%
%ADD28C,4.0000*%
%ADD29C,0.6000*%
G36*
X187000Y443000D02*
X156000D01*
Y477000D01*
X187000D01*
Y443000D01*
D02*
G37*
G36*
X147000Y435270D02*
X146861Y435000D01*
X165464D01*
X166009Y433893D01*
X166000Y433884D01*
Y418000D01*
X140000D01*
Y434000D01*
X51000D01*
X51000Y314005D01*
X112000Y313982D01*
X257040Y313927D01*
X257395Y313395D01*
X259049Y312290D01*
X261000Y311902D01*
X262951Y312290D01*
X264605Y313395D01*
X264958Y313924D01*
X341087Y313895D01*
Y308717D01*
X341049Y308710D01*
X339395Y307605D01*
X338290Y305951D01*
X337902Y304000D01*
X338290Y302049D01*
X339395Y300395D01*
X341049Y299290D01*
X341087Y299283D01*
Y273982D01*
Y203096D01*
X340873Y202580D01*
X301420D01*
Y273982D01*
X215021D01*
X214605Y274605D01*
X212951Y275710D01*
X211000Y276098D01*
X209049Y275710D01*
X207395Y274605D01*
X206979Y273982D01*
X73000D01*
Y272048D01*
X80258Y264790D01*
X79902Y263000D01*
X80290Y261049D01*
X81395Y259395D01*
X83049Y258290D01*
X85000Y257902D01*
X86790Y258258D01*
X98048Y247000D01*
X149091D01*
Y135091D01*
X149000Y135000D01*
X115337D01*
Y223000D01*
X85000D01*
X45000Y263000D01*
X6000Y263000D01*
X6000Y477000D01*
X147000Y477000D01*
X147000Y435270D01*
D02*
G37*
G36*
X493000Y417000D02*
X493000D01*
X493000Y369000D01*
X246000Y369000D01*
X246000Y418000D01*
X374000Y418000D01*
Y485000D01*
X493000D01*
Y417000D01*
D02*
G37*
G36*
X107555Y414000D02*
X107700Y413940D01*
Y395855D01*
X78145D01*
X78000Y396000D01*
Y339000D01*
X53039D01*
X53039Y414000D01*
X107555D01*
D02*
G37*
G36*
X217300Y373145D02*
X146300D01*
Y414145D01*
X217300D01*
Y373145D01*
D02*
G37*
G36*
X433000Y317000D02*
X386000D01*
Y358000D01*
X433000D01*
Y317000D01*
D02*
G37*
G36*
X102000Y157000D02*
X76000D01*
Y186000D01*
X102000D01*
Y157000D01*
D02*
G37*
G36*
X434000Y150000D02*
X387000D01*
Y191000D01*
X434000D01*
Y150000D01*
D02*
G37*
G36*
X202000Y82000D02*
X130000D01*
Y132000D01*
X160000D01*
Y136000D01*
X202000D01*
Y82000D01*
D02*
G37*
G36*
X93555Y129000D02*
X93700Y128940D01*
Y110855D01*
X63000D01*
Y101306D01*
X62980Y101203D01*
X63000Y101101D01*
Y54000D01*
X39000D01*
Y129000D01*
X93555D01*
D02*
G37*
G36*
X493000Y136000D02*
X493000Y82000D01*
X493000D01*
Y14000D01*
X374000Y14000D01*
Y82000D01*
X265000Y82000D01*
X265000Y136000D01*
X493000Y136000D01*
D02*
G37*
%LPC*%
G36*
X255000Y308098D02*
X253049Y307710D01*
X251395Y306605D01*
X250290Y304951D01*
X249902Y303000D01*
X250290Y301049D01*
X251395Y299395D01*
X253049Y298290D01*
X255000Y297902D01*
X256755Y298251D01*
X257433Y297817D01*
X257877Y297382D01*
X257776Y296874D01*
X258164Y294923D01*
X259270Y293270D01*
X260923Y292164D01*
X262874Y291776D01*
X264825Y292164D01*
X266479Y293270D01*
X267584Y294923D01*
X267972Y296874D01*
X267584Y298825D01*
X266479Y300479D01*
X264825Y301584D01*
X262874Y301972D01*
X261119Y301623D01*
X260441Y302057D01*
X259997Y302493D01*
X260098Y303000D01*
X259710Y304951D01*
X258605Y306605D01*
X256951Y307710D01*
X255000Y308098D01*
D02*
G37*
G36*
X237500Y297598D02*
X235549Y297210D01*
X233895Y296105D01*
X232790Y294451D01*
X232402Y292500D01*
X232790Y290549D01*
X233895Y288895D01*
X235549Y287790D01*
X237500Y287402D01*
X239451Y287790D01*
X241105Y288895D01*
X242210Y290549D01*
X242598Y292500D01*
X242210Y294451D01*
X241105Y296105D01*
X239451Y297210D01*
X237500Y297598D01*
D02*
G37*
G36*
X43000Y293059D02*
X40000D01*
X38830Y292826D01*
X37837Y292163D01*
X37174Y291171D01*
X36941Y290000D01*
X37174Y288829D01*
X37837Y287837D01*
X38830Y287174D01*
X40000Y286941D01*
X43000D01*
X44170Y287174D01*
X45163Y287837D01*
X45826Y288829D01*
X46059Y290000D01*
X45826Y291171D01*
X45163Y292163D01*
X44170Y292826D01*
X43000Y293059D01*
D02*
G37*
G36*
X217000Y297098D02*
X215049Y296710D01*
X213395Y295605D01*
X212290Y293951D01*
X211902Y292000D01*
X212290Y290049D01*
X213395Y288395D01*
X215049Y287290D01*
X217000Y286902D01*
X218951Y287290D01*
X220605Y288395D01*
X221710Y290049D01*
X222098Y292000D01*
X221710Y293951D01*
X220605Y295605D01*
X218951Y296710D01*
X217000Y297098D01*
D02*
G37*
G36*
X85000Y235059D02*
X83829Y234826D01*
X82837Y234163D01*
X82174Y233171D01*
X81941Y232000D01*
X82174Y230830D01*
X82837Y229837D01*
X83337Y229337D01*
X84329Y228674D01*
X85500Y228441D01*
X86671Y228674D01*
X87663Y229337D01*
X88326Y230329D01*
X88559Y231500D01*
X88326Y232671D01*
X87663Y233663D01*
X87163Y234163D01*
X86171Y234826D01*
X85000Y235059D01*
D02*
G37*
G36*
X130000Y186559D02*
X128829Y186326D01*
X127837Y185663D01*
X124337Y182163D01*
X123674Y181171D01*
X123441Y180000D01*
X123441Y180000D01*
Y172000D01*
X123674Y170830D01*
X124337Y169837D01*
X125330Y169174D01*
X126500Y168941D01*
X127670Y169174D01*
X128663Y169837D01*
X129326Y170830D01*
X129559Y172000D01*
Y178733D01*
X132163Y181337D01*
X132826Y182330D01*
X133059Y183500D01*
X132826Y184671D01*
X132163Y185663D01*
X131171Y186326D01*
X130000Y186559D01*
D02*
G37*
G36*
X190220Y401709D02*
X189049Y401476D01*
X188057Y400813D01*
X187394Y399821D01*
X187161Y398650D01*
X187394Y397480D01*
X188057Y396487D01*
X194707Y389837D01*
X195700Y389174D01*
X196870Y388941D01*
X198041Y389174D01*
X199033Y389837D01*
X199696Y390829D01*
X199929Y392000D01*
X199696Y393171D01*
X199033Y394163D01*
X192383Y400813D01*
X191390Y401476D01*
X190220Y401709D01*
D02*
G37*
G36*
X153000Y127059D02*
X151000D01*
X149830Y126826D01*
X148837Y126163D01*
X148174Y125170D01*
X147941Y124000D01*
X148174Y122830D01*
X148837Y121837D01*
X149830Y121174D01*
X151000Y120941D01*
X153000D01*
X154171Y121174D01*
X155163Y121837D01*
X155826Y122830D01*
X156059Y124000D01*
X155826Y125170D01*
X155163Y126163D01*
X154171Y126826D01*
X153000Y127059D01*
D02*
G37*
G36*
X167250Y127059D02*
X166080Y126826D01*
X165087Y126163D01*
X164424Y125170D01*
X164191Y124000D01*
X164424Y122830D01*
X165087Y121837D01*
X180087Y106837D01*
X181080Y106174D01*
X182250Y105941D01*
X183421Y106174D01*
X184413Y106837D01*
X185076Y107830D01*
X185309Y109000D01*
X185076Y110170D01*
X184413Y111163D01*
X169413Y126163D01*
X168421Y126826D01*
X167250Y127059D01*
D02*
G37*
G36*
X336000Y112059D02*
X334000D01*
X332830Y111826D01*
X331837Y111163D01*
X331174Y110170D01*
X330941Y109000D01*
X331174Y107830D01*
X331837Y106837D01*
X332830Y106174D01*
X334000Y105941D01*
X336000D01*
X337170Y106174D01*
X338163Y106837D01*
X338826Y107830D01*
X339059Y109000D01*
X338826Y110170D01*
X338163Y111163D01*
X337170Y111826D01*
X336000Y112059D01*
D02*
G37*
G36*
X285000Y113309D02*
X283829Y113076D01*
X282837Y112413D01*
X281587Y111163D01*
X280924Y110170D01*
X280691Y109000D01*
X280924Y107830D01*
X281587Y106837D01*
X282579Y106174D01*
X283750Y105941D01*
X284921Y106174D01*
X285913Y106837D01*
X287163Y108087D01*
X287826Y109080D01*
X288059Y110250D01*
X287826Y111421D01*
X287163Y112413D01*
X286171Y113076D01*
X285000Y113309D01*
D02*
G37*
%LPD*%
D10*
X40000Y290000D02*
X43000D01*
X283750Y109000D02*
X285000Y110250D01*
X85000Y232000D02*
X85500Y231500D01*
X126500Y172000D02*
Y180000D01*
X130000Y183500D01*
X334000Y109000D02*
X336000D01*
X190220Y398650D02*
X196870Y392000D01*
X151000Y124000D02*
X153000D01*
X167250D02*
X182250Y109000D01*
D13*
X410000Y169000D02*
D03*
Y115000D02*
D03*
Y336000D02*
D03*
Y390000D02*
D03*
D14*
X283750Y109000D02*
D03*
X182250D02*
D03*
D15*
X163500Y458000D02*
D03*
X132500D02*
D03*
X95500Y172000D02*
D03*
X126500D02*
D03*
D16*
X138270Y100950D02*
D03*
Y113650D02*
D03*
Y126350D02*
D03*
Y139050D02*
D03*
X87730Y100950D02*
D03*
Y113650D02*
D03*
Y126350D02*
D03*
Y139050D02*
D03*
X152270Y385950D02*
D03*
Y398650D02*
D03*
Y411350D02*
D03*
Y424050D02*
D03*
X101730Y385950D02*
D03*
Y398650D02*
D03*
Y411350D02*
D03*
Y424050D02*
D03*
D17*
X196870Y392000D02*
D03*
X283130D02*
D03*
D25*
X69000Y139000D02*
X69025Y139025D01*
X87705D01*
X68078Y101203D02*
X85976D01*
X87705Y139025D02*
X87730Y139050D01*
X101730Y424050D02*
X102230D01*
D26*
X83730D02*
X101730D01*
X83230Y385950D02*
X101730D01*
D27*
X39597Y34594D02*
X29600D01*
Y27096D01*
X34598D01*
X29600D01*
Y19598D01*
X54592Y34594D02*
X44595D01*
Y19598D01*
X54592D01*
X44595Y27096D02*
X49594D01*
X59590Y34594D02*
Y19598D01*
X67088D01*
X69587Y22098D01*
Y32094D01*
X67088Y34594D01*
X59590D01*
X84582D02*
X74585D01*
Y19598D01*
X84582D01*
X74585Y27096D02*
X79584D01*
X89581Y34594D02*
Y24597D01*
X94579Y19598D01*
X99577Y24597D01*
Y34594D01*
X114572D02*
X104576D01*
Y19598D01*
X114572D01*
X104576Y27096D02*
X109574D01*
X119571Y34594D02*
Y19598D01*
X129568D01*
X149561D02*
Y29595D01*
X154559Y34594D01*
X159558Y29595D01*
Y19598D01*
Y27096D01*
X149561D01*
X174553Y29595D02*
X167055D01*
X164556Y27096D01*
Y22098D01*
X167055Y19598D01*
X174553D01*
X182051Y29595D02*
X187049D01*
X189548Y27096D01*
Y19598D01*
X182051D01*
X179551Y22098D01*
X182051Y24597D01*
X189548D01*
X204543Y34594D02*
Y19598D01*
X197046D01*
X194547Y22098D01*
Y27096D01*
X197046Y29595D01*
X204543D01*
X217039Y19598D02*
X212041D01*
X209542Y22098D01*
Y27096D01*
X212041Y29595D01*
X217039D01*
X219538Y27096D01*
Y24597D01*
X209542D01*
X224537Y19598D02*
Y29595D01*
X227036D01*
X229535Y27096D01*
Y19598D01*
Y27096D01*
X232034Y29595D01*
X234534Y27096D01*
Y19598D01*
X239532Y29595D02*
Y22098D01*
X242031Y19598D01*
X249529D01*
Y17099D01*
X247030Y14600D01*
X244530D01*
X249529Y19598D02*
Y29595D01*
X269522Y34594D02*
Y19598D01*
X292015D02*
Y29595D01*
X297013Y34594D01*
X302012Y29595D01*
Y19598D01*
Y27096D01*
X292015D01*
X307010Y19598D02*
Y34594D01*
X314508D01*
X317007Y32094D01*
Y27096D01*
X314508Y24597D01*
X307010D01*
X322005Y19598D02*
Y34594D01*
X329503D01*
X332002Y32094D01*
Y27096D01*
X329503Y24597D01*
X322005D01*
X327004D02*
X332002Y19598D01*
D28*
X464000Y171000D02*
D03*
X30000Y300000D02*
D03*
Y220000D02*
D03*
X464000Y113000D02*
D03*
Y390000D02*
D03*
Y337000D02*
D03*
D29*
X430000Y170000D02*
D03*
X428000Y322000D02*
D03*
X310000Y360000D02*
D03*
X69000Y139000D02*
D03*
X73000Y116000D02*
D03*
X44000Y123000D02*
D03*
X57000D02*
D03*
X44000Y106000D02*
D03*
X57000D02*
D03*
X51000Y114000D02*
D03*
X44000Y87000D02*
D03*
X58000D02*
D03*
X50000Y96000D02*
D03*
X44000Y72000D02*
D03*
Y58000D02*
D03*
X51000Y64000D02*
D03*
X50000Y79000D02*
D03*
X58000Y72000D02*
D03*
Y58000D02*
D03*
X72000Y343000D02*
D03*
Y357000D02*
D03*
X64000Y364000D02*
D03*
X65000Y349000D02*
D03*
X58000Y343000D02*
D03*
Y357000D02*
D03*
X64000Y381000D02*
D03*
X72000Y372000D02*
D03*
X58000D02*
D03*
X65000Y399000D02*
D03*
X71000Y391000D02*
D03*
X58000D02*
D03*
X71000Y408000D02*
D03*
X58000D02*
D03*
X84875Y408816D02*
D03*
X84884Y399000D02*
D03*
X164000Y258000D02*
D03*
Y265000D02*
D03*
X349580Y156500D02*
D03*
X361000Y177000D02*
D03*
X360617Y185000D02*
D03*
X348000Y206000D02*
D03*
Y213000D02*
D03*
X365000Y235000D02*
D03*
X370000Y289000D02*
D03*
Y297000D02*
D03*
X368000Y324000D02*
D03*
Y316000D02*
D03*
X296000Y426000D02*
D03*
X391000Y185000D02*
D03*
X392000Y171000D02*
D03*
X391000Y155000D02*
D03*
X430000D02*
D03*
Y186000D02*
D03*
X428000Y352000D02*
D03*
Y336000D02*
D03*
X391000Y321587D02*
D03*
Y336195D02*
D03*
Y352000D02*
D03*
X369000Y335000D02*
D03*
X82000Y163000D02*
D03*
Y181000D02*
D03*
X175000Y448000D02*
D03*
Y469000D02*
D03*
X85000Y232000D02*
D03*
X343000Y304000D02*
D03*
X331750Y222000D02*
D03*
X287148Y265000D02*
D03*
X82000Y172000D02*
D03*
X255000Y303000D02*
D03*
X312000Y147000D02*
D03*
X262874Y296874D02*
D03*
X270000Y149351D02*
D03*
X304614Y186423D02*
D03*
X195500Y173242D02*
D03*
X212390Y200096D02*
D03*
X73000Y124000D02*
D03*
X68078Y101203D02*
D03*
X83730Y424050D02*
D03*
X227500Y337000D02*
D03*
X217000Y292000D02*
D03*
X256000Y392000D02*
D03*
X260000Y240000D02*
D03*
Y261000D02*
D03*
X240000Y240000D02*
D03*
Y261000D02*
D03*
X261000Y317000D02*
D03*
X211000Y251000D02*
D03*
X175000Y458000D02*
D03*
X336000Y109000D02*
D03*
X171245Y398650D02*
D03*
X211000Y271000D02*
D03*
X211500Y237500D02*
D03*
X153000Y124000D02*
D03*
X83230Y385950D02*
D03*
X237500Y292500D02*
D03*
X234000Y199000D02*
D03*
X283000Y225000D02*
D03*
X220000Y146000D02*
D03*
X322270Y347000D02*
D03*
X365000Y251000D02*
D03*
X84000Y205000D02*
D03*
X85000Y263000D02*
D03*
X245000Y146000D02*
D03*
X159000Y339000D02*
D03*
Y364000D02*
D03*
M02*
