G04*
G04 #@! TF.GenerationSoftware,Altium Limited,Altium Designer,20.0.13 (296)*
G04*
G04 Layer_Color=32896*
%FSLAX44Y44*%
%MOMM*%
G71*
G01*
G75*
%ADD10C,0.2000*%
%ADD11C,0.1500*%
%ADD12C,0.2540*%
%ADD44C,0.3000*%
D10*
X165204Y246824D02*
Y256464D01*
Y246824D02*
X202796D01*
Y269176D01*
X165204D02*
X202796D01*
X165204Y256464D02*
Y269176D01*
X348796Y210536D02*
Y220176D01*
X311204D02*
X348796D01*
X311204Y197824D02*
Y220176D01*
Y197824D02*
X348796D01*
Y210536D01*
X359000Y169000D02*
Y193000D01*
X311000D02*
X359000D01*
X311000Y169000D02*
Y193000D01*
Y169000D02*
X359000D01*
X301000Y130000D02*
Y164000D01*
Y130000D02*
X321000D01*
Y164000D01*
X301000D02*
X321000D01*
X347000Y130000D02*
Y164000D01*
X327000D02*
X347000D01*
X327000Y130000D02*
Y164000D01*
Y130000D02*
X347000D01*
X210000Y157000D02*
Y191000D01*
Y157000D02*
X230000D01*
Y191000D01*
X210000D02*
X230000D01*
X280000Y151000D02*
Y185000D01*
X260000D02*
X280000D01*
X260000Y151000D02*
Y185000D01*
Y151000D02*
X280000D01*
X96000Y195000D02*
X130000D01*
Y215000D01*
X96000D02*
X130000D01*
X96000Y195000D02*
Y215000D01*
Y242000D02*
X130000D01*
X96000Y222000D02*
Y242000D01*
Y222000D02*
X130000D01*
Y242000D01*
X96000Y253000D02*
X130000D01*
Y273000D01*
X96000D02*
X130000D01*
X96000Y253000D02*
Y273000D01*
X370296Y294536D02*
Y304176D01*
X332704D02*
X370296D01*
X332704Y281824D02*
Y304176D01*
Y281824D02*
X370296D01*
Y294536D01*
X332704Y308824D02*
Y318464D01*
Y308824D02*
X370296D01*
Y331176D01*
X332704D02*
X370296D01*
X332704Y318464D02*
Y331176D01*
X333000Y357000D02*
X367000D01*
X333000Y337000D02*
Y357000D01*
Y337000D02*
X367000D01*
Y357000D01*
X170000Y354000D02*
X204000D01*
Y374000D01*
X170000D02*
X204000D01*
X170000Y354000D02*
Y374000D01*
Y329000D02*
X204000D01*
Y349000D01*
X170000D02*
X204000D01*
X170000Y329000D02*
Y349000D01*
X269000Y287000D02*
Y321000D01*
Y287000D02*
X289000D01*
Y321000D01*
X269000D02*
X289000D01*
X269000Y372000D02*
X303000D01*
X269000Y352000D02*
Y372000D01*
Y352000D02*
X303000D01*
Y372000D01*
X269000Y398000D02*
X303000D01*
X269000Y378000D02*
Y398000D01*
Y378000D02*
X303000D01*
Y398000D01*
X269000Y403000D02*
X303000D01*
Y423000D01*
X269000D02*
X303000D01*
X269000Y403000D02*
Y423000D01*
Y347000D02*
X303000D01*
X269000Y327000D02*
Y347000D01*
Y327000D02*
X303000D01*
Y347000D01*
X235000Y191000D02*
X255000D01*
Y157000D02*
Y191000D01*
X235000Y157000D02*
X255000D01*
X235000D02*
Y191000D01*
X276000Y271000D02*
Y274000D01*
Y224000D02*
Y229000D01*
X271000Y224000D02*
X276000D01*
X224000D02*
X229000D01*
X224000D02*
Y229000D01*
Y271000D02*
Y276000D01*
X229000D01*
X271000D02*
X274000D01*
X276000Y274000D01*
X312000Y259000D02*
X362000D01*
Y225000D02*
Y259000D01*
X312000Y225000D02*
X362000D01*
X312000D02*
Y259000D01*
X177607Y311464D02*
Y324176D01*
X215199D01*
Y301824D02*
Y324176D01*
X177607Y301824D02*
X215199D01*
X177607D02*
Y311464D01*
X204796Y188824D02*
Y201536D01*
X167204Y188824D02*
X204796D01*
X167204D02*
Y211176D01*
X204796D01*
Y201536D02*
Y211176D01*
X167204Y225464D02*
Y238176D01*
X204796D01*
Y215824D02*
Y238176D01*
X167204Y215824D02*
X204796D01*
X167204D02*
Y225464D01*
X201960Y274840D02*
Y287552D01*
X164368Y274840D02*
X201960D01*
X164368D02*
Y297192D01*
X201960D01*
Y287552D02*
Y297192D01*
D11*
X282500Y270500D02*
X280834D01*
X281667D01*
Y275498D01*
X282500Y274665D01*
D12*
X403887Y327078D02*
X406426Y329618D01*
X411505D01*
X414044Y327078D01*
Y316922D01*
X411505Y314382D01*
X406426D01*
X403887Y316922D01*
X398809Y314382D02*
X393730D01*
X396270D01*
Y329618D01*
X398809Y327078D01*
X375956Y314382D02*
X386113D01*
X375956Y324539D01*
Y327078D01*
X378495Y329618D01*
X383574D01*
X386113Y327078D01*
X260297Y407383D02*
Y422617D01*
X252679D01*
X250140Y420078D01*
Y415000D01*
X252679Y412461D01*
X260297D01*
X255218D02*
X250140Y407383D01*
X245062D02*
X239983D01*
X242522D01*
Y422617D01*
X245062Y420078D01*
X232366D02*
X229827Y422617D01*
X224748D01*
X222209Y420078D01*
Y417539D01*
X224748Y415000D01*
X222209Y412461D01*
Y409922D01*
X224748Y407383D01*
X229827D01*
X232366Y409922D01*
Y412461D01*
X229827Y415000D01*
X232366Y417539D01*
Y420078D01*
X229827Y415000D02*
X224748D01*
X329383Y84956D02*
X344618D01*
Y92574D01*
X342078Y95113D01*
X337000D01*
X334461Y92574D01*
Y84956D01*
Y90035D02*
X329383Y95113D01*
Y100191D02*
Y105270D01*
Y102730D01*
X344618D01*
X342078Y100191D01*
X344618Y112887D02*
Y123044D01*
X342078D01*
X331922Y112887D01*
X329383D01*
X260044Y355382D02*
Y370617D01*
X252426D01*
X249887Y368078D01*
Y363000D01*
X252426Y360461D01*
X260044D01*
X254965D02*
X249887Y355382D01*
X244809D02*
X239730D01*
X242270D01*
Y370617D01*
X244809Y368078D01*
X221956Y370617D02*
X227034Y368078D01*
X232113Y363000D01*
Y357922D01*
X229574Y355382D01*
X224495D01*
X221956Y357922D01*
Y360461D01*
X224495Y363000D01*
X232113D01*
X260044Y381382D02*
Y396618D01*
X252426D01*
X249887Y394078D01*
Y389000D01*
X252426Y386461D01*
X260044D01*
X254965D02*
X249887Y381382D01*
X244809D02*
X239730D01*
X242270D01*
Y396618D01*
X244809Y394078D01*
X221956Y396618D02*
X232113D01*
Y389000D01*
X227034Y391539D01*
X224495D01*
X221956Y389000D01*
Y383922D01*
X224495Y381382D01*
X229574D01*
X232113Y383922D01*
X260297Y329383D02*
Y344618D01*
X252679D01*
X250140Y342078D01*
Y337000D01*
X252679Y334461D01*
X260297D01*
X255218D02*
X250140Y329383D01*
X245062D02*
X239983D01*
X242522D01*
Y344618D01*
X245062Y342078D01*
X224748Y329383D02*
Y344618D01*
X232366Y337000D01*
X222209D01*
X212383Y101956D02*
X227617D01*
Y109574D01*
X225078Y112113D01*
X220000D01*
X217461Y109574D01*
Y101956D01*
Y107035D02*
X212383Y112113D01*
Y117191D02*
Y122270D01*
Y119730D01*
X227617D01*
X225078Y117191D01*
Y129887D02*
X227617Y132426D01*
Y137505D01*
X225078Y140044D01*
X222539D01*
X220000Y137505D01*
Y134965D01*
Y137505D01*
X217461Y140044D01*
X214922D01*
X212383Y137505D01*
Y132426D01*
X214922Y129887D01*
X262379Y101960D02*
X277614Y101957D01*
X277615Y109574D01*
X275077Y112114D01*
X269998Y112115D01*
X267458Y109576D01*
X267457Y101959D01*
X267458Y107037D02*
X262381Y112116D01*
X262382Y117195D02*
X262383Y122273D01*
X262382Y119734D01*
X277617Y119731D01*
X275078Y117192D01*
X262386Y140048D02*
X262384Y129891D01*
X272543Y140045D01*
X275082Y140045D01*
X277621Y137505D01*
X277620Y132427D01*
X275080Y129888D01*
X303230Y85121D02*
X318464Y84980D01*
X318535Y92597D01*
X316019Y95159D01*
X310941Y95206D01*
X308379Y92691D01*
X308308Y85074D01*
X308355Y90152D02*
X303324Y95277D01*
X303371Y100355D02*
X303418Y105433D01*
X303395Y102894D01*
X318629Y102753D01*
X316066Y100238D01*
X303489Y113050D02*
X303536Y118128D01*
X303512Y115590D01*
X318747Y115448D01*
X316184Y112933D01*
X412044Y339383D02*
Y354618D01*
X404426D01*
X401887Y352078D01*
Y347000D01*
X404426Y344461D01*
X412044D01*
X406965D02*
X401887Y339383D01*
X396809D02*
X391730D01*
X394270D01*
Y354618D01*
X396809Y352078D01*
X384113D02*
X381574Y354618D01*
X376495D01*
X373956Y352078D01*
Y341922D01*
X376495Y339383D01*
X381574D01*
X384113Y341922D01*
Y352078D01*
X159663Y359002D02*
Y372998D01*
X152665D01*
X150333Y370665D01*
Y366000D01*
X152665Y363667D01*
X159663D01*
X154998D02*
X150333Y359002D01*
X145667Y361335D02*
X143335Y359002D01*
X138670D01*
X136337Y361335D01*
Y370665D01*
X138670Y372998D01*
X143335D01*
X145667Y370665D01*
Y368333D01*
X143335Y366000D01*
X136337D01*
X159663Y334002D02*
Y347998D01*
X152665D01*
X150333Y345665D01*
Y341000D01*
X152665Y338667D01*
X159663D01*
X154998D02*
X150333Y334002D01*
X145667Y345665D02*
X143335Y347998D01*
X138670D01*
X136337Y345665D01*
Y343333D01*
X138670Y341000D01*
X136337Y338667D01*
Y336335D01*
X138670Y334002D01*
X143335D01*
X145667Y336335D01*
Y338667D01*
X143335Y341000D01*
X145667Y343333D01*
Y345665D01*
X143335Y341000D02*
X138670D01*
X237472Y101974D02*
X252707Y102081D01*
X252653Y109698D01*
X250096Y112220D01*
X245018Y112184D01*
X242497Y109627D01*
X242550Y102010D01*
X242514Y107088D02*
X237400Y112130D01*
X252600Y117316D02*
X252528Y127472D01*
X249989Y127455D01*
X239904Y117226D01*
X237365Y117209D01*
X320696Y304382D02*
Y319618D01*
X313078D01*
X310539Y317078D01*
Y312000D01*
X313078Y309461D01*
X320696D01*
X315618D02*
X310539Y304382D01*
X295304Y319618D02*
X300382Y317078D01*
X305461Y312000D01*
Y306922D01*
X302922Y304382D01*
X297843D01*
X295304Y306922D01*
Y309461D01*
X297843Y312000D01*
X305461D01*
X158663Y281002D02*
Y294998D01*
X151665D01*
X149333Y292665D01*
Y288000D01*
X151665Y285667D01*
X158663D01*
X153998D02*
X149333Y281002D01*
X135337Y294998D02*
X144667D01*
Y288000D01*
X140002Y290333D01*
X137670D01*
X135337Y288000D01*
Y283335D01*
X137670Y281002D01*
X142335D01*
X144667Y283335D01*
X159663Y220002D02*
Y233998D01*
X152665D01*
X150333Y231665D01*
Y227000D01*
X152665Y224667D01*
X159663D01*
X154998D02*
X150333Y220002D01*
X138670D02*
Y233998D01*
X145667Y227000D01*
X136337D01*
X86696Y225382D02*
Y240618D01*
X79078D01*
X76539Y238078D01*
Y233000D01*
X79078Y230461D01*
X86696D01*
X81617D02*
X76539Y225382D01*
X71461Y238078D02*
X68922Y240618D01*
X63843D01*
X61304Y238078D01*
Y235539D01*
X63843Y233000D01*
X66382D01*
X63843D01*
X61304Y230461D01*
Y227922D01*
X63843Y225382D01*
X68922D01*
X71461Y227922D01*
X86696Y257383D02*
Y272617D01*
X79078D01*
X76539Y270078D01*
Y265000D01*
X79078Y262461D01*
X86696D01*
X81617D02*
X76539Y257383D01*
X61304D02*
X71461D01*
X61304Y267539D01*
Y270078D01*
X63843Y272617D01*
X68922D01*
X71461Y270078D01*
X86696Y199382D02*
Y214618D01*
X79078D01*
X76539Y212078D01*
Y207000D01*
X79078Y204461D01*
X86696D01*
X81617D02*
X76539Y199382D01*
X71461D02*
X66382D01*
X68922D01*
Y214618D01*
X71461Y212078D01*
X391348Y255078D02*
X393887Y257617D01*
X398965D01*
X401505Y255078D01*
Y244922D01*
X398965Y242383D01*
X393887D01*
X391348Y244922D01*
X386270Y242383D02*
X381191D01*
X383730D01*
Y257617D01*
X386270Y255078D01*
X373574Y242383D02*
X368495D01*
X371035D01*
Y257617D01*
X373574Y255078D01*
X150333Y311335D02*
X152665Y309002D01*
X157330D01*
X159663Y311335D01*
Y320665D01*
X157330Y322998D01*
X152665D01*
X150333Y320665D01*
X145667Y311335D02*
X143335Y309002D01*
X138670D01*
X136337Y311335D01*
Y313667D01*
X138670Y316000D01*
X136337Y318333D01*
Y320665D01*
X138670Y322998D01*
X143335D01*
X145667Y320665D01*
Y318333D01*
X143335Y316000D01*
X145667Y313667D01*
Y311335D01*
X143335Y316000D02*
X138670D01*
X150333Y204665D02*
X152665Y206998D01*
X157330D01*
X159663Y204665D01*
Y195335D01*
X157330Y193002D01*
X152665D01*
X150333Y195335D01*
X145667Y206998D02*
X136337D01*
Y204665D01*
X145667Y195335D01*
Y193002D01*
X371539Y216078D02*
X374078Y218617D01*
X379157D01*
X381696Y216078D01*
Y205922D01*
X379157Y203382D01*
X374078D01*
X371539Y205922D01*
X356304Y218617D02*
X366461D01*
Y211000D01*
X361382Y213539D01*
X358843D01*
X356304Y211000D01*
Y205922D01*
X358843Y203382D01*
X363922D01*
X366461Y205922D01*
X150333Y265665D02*
X152665Y267998D01*
X157330D01*
X159663Y265665D01*
Y256335D01*
X157330Y254002D01*
X152665D01*
X150333Y256335D01*
X145667Y265665D02*
X143335Y267998D01*
X138670D01*
X136337Y265665D01*
Y263333D01*
X138670Y261000D01*
X141002D01*
X138670D01*
X136337Y258668D01*
Y256335D01*
X138670Y254002D01*
X143335D01*
X145667Y256335D01*
X379539Y190078D02*
X382078Y192617D01*
X387157D01*
X389696Y190078D01*
Y179922D01*
X387157Y177383D01*
X382078D01*
X379539Y179922D01*
X364304Y177383D02*
X374461D01*
X364304Y187539D01*
Y190078D01*
X366843Y192617D01*
X371922D01*
X374461Y190078D01*
X387000Y301078D02*
X389539Y303617D01*
X394618D01*
X397157Y301078D01*
Y290922D01*
X394618Y288382D01*
X389539D01*
X387000Y290922D01*
X381922Y288382D02*
X376843D01*
X379382D01*
Y303617D01*
X381922Y301078D01*
D44*
X481668Y9000D02*
X487000Y14332D01*
Y19663D01*
X481668Y24995D01*
X463008Y22329D02*
X465674Y24995D01*
X471005D01*
X473671Y22329D01*
Y11666D01*
X471005Y9000D01*
X465674D01*
X463008Y11666D01*
X457676Y9000D02*
X452345Y14332D01*
Y19663D01*
X457676Y24995D01*
X417689Y9000D02*
X428352D01*
X417689Y19663D01*
Y22329D01*
X420355Y24995D01*
X425687D01*
X428352Y22329D01*
X412358D02*
X409692Y24995D01*
X404360D01*
X401694Y22329D01*
Y11666D01*
X404360Y9000D01*
X409692D01*
X412358Y11666D01*
Y22329D01*
X385700Y9000D02*
X396363D01*
X385700Y19663D01*
Y22329D01*
X388365Y24995D01*
X393697D01*
X396363Y22329D01*
X380368Y9000D02*
X375036D01*
X377702D01*
Y24995D01*
X380368Y22329D01*
X340381Y24995D02*
X351044D01*
Y16997D01*
X345713D01*
X351044D01*
Y9000D01*
X324386Y24995D02*
X335049D01*
Y9000D01*
X324386D01*
X335049Y16997D02*
X329718D01*
X319055Y24995D02*
Y9000D01*
X311057D01*
X308391Y11666D01*
Y22329D01*
X311057Y24995D01*
X319055D01*
X292397D02*
X303060D01*
Y9000D01*
X292397D01*
X303060Y16997D02*
X297728D01*
X287065Y24995D02*
Y14332D01*
X281733Y9000D01*
X276402Y14332D01*
Y24995D01*
X260407D02*
X271070D01*
Y9000D01*
X260407D01*
X271070Y16997D02*
X265739D01*
X255075Y24995D02*
Y9000D01*
X244412D01*
X470000Y487661D02*
X464668D01*
X467334D01*
Y471666D01*
X470000D01*
X464668D01*
X446008Y484995D02*
X448674Y487661D01*
X454005D01*
X456671Y484995D01*
Y482329D01*
X454005Y479663D01*
X448674D01*
X446008Y476997D01*
Y474332D01*
X448674Y471666D01*
X454005D01*
X456671Y474332D01*
X440676Y487661D02*
Y471666D01*
X430013D01*
X414018Y487661D02*
X419350Y484995D01*
X424681Y479663D01*
Y474332D01*
X422016Y471666D01*
X416684D01*
X414018Y474332D01*
Y476997D01*
X416684Y479663D01*
X424681D01*
X398023Y471666D02*
X408687D01*
X398023Y482329D01*
Y484995D01*
X400689Y487661D01*
X406021D01*
X408687Y484995D01*
X392692D02*
X390026Y487661D01*
X384694D01*
X382029Y484995D01*
Y482329D01*
X384694Y479663D01*
X387360D01*
X384694D01*
X382029Y476997D01*
Y474332D01*
X384694Y471666D01*
X390026D01*
X392692Y474332D01*
X366034Y487661D02*
X371365Y484995D01*
X376697Y479663D01*
Y474332D01*
X374031Y471666D01*
X368699D01*
X366034Y474332D01*
Y476997D01*
X368699Y479663D01*
X376697D01*
X360702Y471666D02*
Y482329D01*
X355370Y487661D01*
X350039Y482329D01*
Y471666D01*
Y479663D01*
X360702D01*
X344707Y469000D02*
X334044D01*
X328713Y487661D02*
Y471666D01*
X320715D01*
X318049Y474332D01*
Y484995D01*
X320715Y487661D01*
X328713D01*
X302055D02*
X312718D01*
Y471666D01*
X302055D01*
X312718Y479663D02*
X307386D01*
X296723Y471666D02*
Y487661D01*
X291391Y482329D01*
X286060Y487661D01*
Y471666D01*
X272731Y487661D02*
X278062D01*
X280728Y484995D01*
Y474332D01*
X278062Y471666D01*
X272731D01*
X270065Y474332D01*
Y484995D01*
X272731Y487661D01*
X248738D02*
Y476997D01*
X243407Y471666D01*
X238075Y476997D01*
Y487661D01*
X232744Y471666D02*
X227412D01*
X230078D01*
Y487661D01*
X232744Y484995D01*
X219415Y487661D02*
Y471666D01*
X211417D02*
X206086D01*
X208751D01*
Y487661D01*
X211417Y484995D01*
M02*
