M48
;Layer_Color=9474304
;FILE_FORMAT=4:4
METRIC,LZ
;TYPE=PLATED
T1F00S00C0.3000
T2F00S00C1.5000
%
T01
X00044Y00058
X00051Y00064
X00058Y00058
Y00072
X00044
X0005Y00079
X00044Y00087
X00058
X0005Y00096
X00044Y00106
X00057
X00051Y00114
X00073Y00116
X00068078Y00101203
X00336Y00109
X0034958Y001565
X00361Y00177
X00360617Y00185
X00391
X00392Y00171
X00391Y00155
X0043
Y0017
Y00186
X00348Y00206
Y00213
X0033175Y00222
X00365Y00235
Y00251
X0037Y00289
Y00297
X00368Y00316
Y00324
X00369Y00335
X00391Y00336195
Y00321587
Y00352
X00428
Y00336
Y00322
X00343Y00304
X0032227Y00347
X0031Y0036
X00296Y00426
X00256Y00392
X00261Y00317
X00255Y00303
X00262874Y00296874
X002375Y002925
X00217Y00292
X00211Y00271
Y00251
X002115Y002375
X0024Y0024
X0026
Y00261
X0024
X00287148Y00265
X00283Y00225
X00304614Y00186423
X00312Y00147
X0027Y00149351
X00245Y00146
X0022
X001955Y00173242
X0021239Y00200096
X00234Y00199
X00164Y00258
Y00265
X00159Y00339
Y00364
X00171245Y0039865
X00175Y00448
Y00458
Y00469
X002275Y00337
X00153Y00124
X00073
X00057Y00123
X00044
X00069Y00139
X00082Y00163
Y00172
Y00181
X00084Y00205
X00085Y00232
X00085Y00263
X00072Y00343
X00065Y00349
X00058Y00343
Y00357
X00064Y00364
X00058Y00372
X00072
Y00357
X00064Y00381
X00058Y00391
X00071
X00065Y00399
X00071Y00408
X00058
X00084875Y00408816
X00084884Y00399
X0008323Y0038595
X0008373Y0042405
T02
X00464Y00113
Y00171
Y00337
Y0039
X0003Y003
Y0022
M30
